<svg xmlns="http://www.w3.org/2000/svg" viewBox="0 0 1483.25 360.58"><defs><style>.cls-1{fill:#001359;}.cls-2{fill:#2bbee0;}.cls-3{fill:#28d170;}.cls-4{fill:#f44a4a;}</style></defs><g id="Layer_2" data-name="Layer 2"><g id="Layer_1-2" data-name="Layer 1"><path class="cls-1" d="M381.36,120.45V6.51h45.09A29.72,29.72,0,0,1,442.56,11,32.66,32.66,0,0,1,454,23.11a35.11,35.11,0,0,1,4.23,17.26A38,38,0,0,1,454,58.44,32.76,32.76,0,0,1,442.56,71a29.36,29.36,0,0,1-16.11,4.56H394.22v44.92ZM394.22,63H427.1a14.83,14.83,0,0,0,9-2.93,20.75,20.75,0,0,0,6.43-8.13A27.28,27.28,0,0,0,445,40.21a22.41,22.41,0,0,0-5.2-15.06,16.11,16.11,0,0,0-12.7-6.1H394.22Z"/><path class="cls-1" d="M515,122.08a43.35,43.35,0,0,1-22.39-5.78,42.14,42.14,0,0,1-15.54-15.79,45.37,45.37,0,0,1-5.7-22.87,45,45,0,0,1,5.7-22.7,41.57,41.57,0,0,1,15.54-15.71,46.81,46.81,0,0,1,44.77,0,40.94,40.94,0,0,1,15.46,15.71,45.62,45.62,0,0,1,5.62,22.7,46,46,0,0,1-5.62,22.87,41.5,41.5,0,0,1-15.46,15.79A43.34,43.34,0,0,1,515,122.08Zm0-11.72a29.85,29.85,0,0,0,15.87-4.23,29.42,29.42,0,0,0,10.82-11.64,35.61,35.61,0,0,0,3.91-16.85A34.65,34.65,0,0,0,541.69,61,29.41,29.41,0,0,0,515,45.25a30.26,30.26,0,0,0-16,4.23A29.51,29.51,0,0,0,488.14,61a34.66,34.66,0,0,0-3.91,16.6,35.5,35.5,0,0,0,3.91,16.85A29.26,29.26,0,0,0,499,106.13,30.26,30.26,0,0,0,515,110.36Z"/><path class="cls-1" d="M594.27,120.45,564.64,35.32h13.19l21,63.48,22.62-50.29h7.49L651.24,98,672.4,35.32h13L656,120.45h-7.32L624.87,65.92l-23.11,54.53Z"/><path class="cls-1" d="M736,122.08a45.52,45.52,0,0,1-22.7-5.53A39.41,39.41,0,0,1,698,101.08a46,46,0,0,1-5.53-22.78,48.46,48.46,0,0,1,5.37-23.12,40.1,40.1,0,0,1,15-15.87,41.78,41.78,0,0,1,22-5.78,38,38,0,0,1,20.1,5.29,35.69,35.69,0,0,1,13.43,14.49,43.29,43.29,0,0,1,4.4,21.24l-.17,5.7H705.12q.81,13.83,9.44,22t23,8.14a37.43,37.43,0,0,0,12.13-2q5.94-2,13.1-8.06l6.35,9a45.78,45.78,0,0,1-14.49,9.2A47.81,47.81,0,0,1,736,122.08Zm-1.46-76.83q-11.73,0-19.37,6.27T705.6,69.83h54.53v-1a25.53,25.53,0,0,0-3.41-11.31A24.5,24.5,0,0,0,748,48.67,25.34,25.34,0,0,0,734.58,45.25Z"/><path class="cls-1" d="M791.22,120.45V35.32h12.37l.17,16.44a32.83,32.83,0,0,1,10.41-12.94A27,27,0,0,1,835.33,34c1.63.33,3,.65,4.07,1L836,48.83A21.7,21.7,0,0,0,827.52,47a22.74,22.74,0,0,0-12.69,3.5,23.16,23.16,0,0,0-8.23,9.2,27.72,27.72,0,0,0-2.84,12.53v48.18Z"/><path class="cls-1" d="M887.26,122.08a45.58,45.58,0,0,1-22.71-5.53,39.45,39.45,0,0,1-15.38-15.47,46,46,0,0,1-5.53-22.78A48.46,48.46,0,0,1,849,55.18a40.15,40.15,0,0,1,15-15.87,41.84,41.84,0,0,1,22-5.78,38,38,0,0,1,20.1,5.29,35.69,35.69,0,0,1,13.43,14.49,43.29,43.29,0,0,1,4.4,21.24l-.17,5.7H856.33q.82,13.83,9.45,22t23,8.14a37.33,37.33,0,0,0,12.12-2q5.94-2,13.11-8.06l6.35,9a45.78,45.78,0,0,1-14.49,9.2A47.81,47.81,0,0,1,887.26,122.08ZM885.8,45.25q-11.73,0-19.37,6.27t-9.61,18.31h54.53v-1a25.68,25.68,0,0,0-3.42-11.31,24.39,24.39,0,0,0-8.7-8.87A25.34,25.34,0,0,0,885.8,45.25Z"/><path class="cls-1" d="M977.11,122.08a38.87,38.87,0,0,1-20.91-5.7,40,40,0,0,1-14.49-15.7,48.19,48.19,0,0,1-5.29-22.87,47.26,47.26,0,0,1,5.37-22.71,41.54,41.54,0,0,1,14.49-15.79,37.5,37.5,0,0,1,20.51-5.78,36.92,36.92,0,0,1,18,4.48,36.54,36.54,0,0,1,12.78,11V0h12.37V120.45h-12.21l-.32-14.32A32.75,32.75,0,0,1,995,117.44,36.18,36.18,0,0,1,977.11,122.08Zm1.63-11.39a27.61,27.61,0,0,0,15.14-4.24,29.43,29.43,0,0,0,10.5-11.63,36.56,36.56,0,0,0,3.82-17,36.56,36.56,0,0,0-3.82-17,29.46,29.46,0,0,0-10.5-11.64,27.69,27.69,0,0,0-15.14-4.23,28,28,0,0,0-15.3,4.23A28.91,28.91,0,0,0,953,60.8a37.16,37.16,0,0,0-3.74,17A37.22,37.22,0,0,0,953,94.73a28.75,28.75,0,0,0,10.42,11.72A27.89,27.89,0,0,0,978.74,110.69Z"/><path class="cls-1" d="M1134.68,122.08a36.61,36.61,0,0,1-17.91-4.56,34.84,34.84,0,0,1-12.7-11.23l-.32,13.84h-12.21V0h12.37V50.3a33.23,33.23,0,0,1,12.45-11.88,35.41,35.41,0,0,1,18.15-4.89,37.61,37.61,0,0,1,20.35,5.7,40.3,40.3,0,0,1,14.41,15.71,48.28,48.28,0,0,1,5.29,22.87,48.47,48.47,0,0,1-5.21,22.7,40.5,40.5,0,0,1-14.25,15.79A37,37,0,0,1,1134.68,122.08Zm-2-11.72a28,28,0,0,0,15.3-4.23,28.91,28.91,0,0,0,10.42-11.64,36.78,36.78,0,0,0,3.75-16.85,35.9,35.9,0,0,0-3.75-16.6A29.15,29.15,0,0,0,1148,49.48a29.79,29.79,0,0,0-30.6,0A29.15,29.15,0,0,0,1107,61a36,36,0,0,0-3.74,16.6,36,36,0,0,0,3.83,16.93,29.5,29.5,0,0,0,10.5,11.56A27.63,27.63,0,0,0,1132.72,110.36Z"/><path class="cls-1" d="M1204.51,157.89,1219,122.73l-39.56-87.41h14l29.14,65.11c.43,1,.86,2,1.3,3.18s.87,2.3,1.3,3.5c.33-.87.68-1.77,1.06-2.69s.73-1.87,1.06-2.85l25.39-66.25h14.16l-34.34,85.13-14.65,37.44Z"/><path class="cls-2" d="M176.8,75.09a23.45,23.45,0,0,1-1.93,9.38,23.7,23.7,0,0,1-45.46-9.38,24.06,24.06,0,0,1,2-9.5,23.7,23.7,0,0,1,45.42,9.5Z"/><path class="cls-3" d="M249.47,176.9a23.7,23.7,0,0,1-47.39,0c0-.8,0-1.59.11-2.35a23.68,23.68,0,0,1,47.24,1.82A2.37,2.37,0,0,1,249.47,176.9Z"/><path class="cls-4" d="M104.13,221.94a21.91,21.91,0,0,1-.12,2.31,23.67,23.67,0,0,1-47.23-1.74,2.73,2.73,0,0,1,0-.57,23.7,23.7,0,0,1,47.39,0Z"/><path class="cls-1" d="M0,4.92V311.07H306.2V4.92ZM231.45,20.06h59.61V79c-13.05,4.9-30.31,9.35-57.34,9.35h-2.27Zm0,79.62h2.27c26.16,0,43.81-4,57.34-8.64v70.84a141.58,141.58,0,0,1-35.22,8.2,30.92,30.92,0,0,0-24.39-23.5ZM158.78,20.06H220.1V87.9a148.69,148.69,0,0,1-36.79-6.54,30.8,30.8,0,0,0-24.53-36.58Zm61.32,79.2v47.33a31,31,0,0,0-23.77,21.09c-15-3.18-26.23-8.1-37.55-13.39v-48.9A30.89,30.89,0,0,0,179,91.89,162.11,162.11,0,0,0,220.1,99.26Zm-134-79.2h61.32V44.78a30.94,30.94,0,0,0-20.09,13.41,162.52,162.52,0,0,0-41.23-7.32Zm-71,0H74.76V50.5l-1.93,0c-26.36,0-44.1,4-57.69,8.74Zm0,51.24c13.1-5,30.44-9.46,57.69-9.46h1.93v71.54l-1.93,0c-26.32,0-44.07,4-57.69,8.77Zm57.69,73.43h1.93v46.89a30.9,30.9,0,0,0-24.82,25.79A154.26,154.26,0,0,0,15.14,225V154.22C28.28,149.25,45.64,144.73,72.83,144.73Zm1.93,151.2H15.14V237.12a141.43,141.43,0,0,1,35.24-8.32,30.93,30.93,0,0,0,24.38,23.45Zm-11.05-74a16.73,16.73,0,1,1,16.72,16.72A16.74,16.74,0,0,1,63.71,221.94Zm83.72,74H86.11V252.25A31,31,0,0,0,109.9,231.1c15.21,3.17,26.67,8.21,37.53,13.29Zm0-64.05a159.61,159.61,0,0,0-36.25-12.1,30.89,30.89,0,0,0-25.07-28.15V145.11c28.39,1.7,44.85,8.71,61.32,16.4Zm0-82.87c-15.7-7.12-33.31-13.67-61.32-15.27V62.23a152.19,152.19,0,0,1,36.83,6.49,30.39,30.39,0,0,0-.69,6.37,30.88,30.88,0,0,0,25.18,30.3ZM136.38,75.09A16.73,16.73,0,1,1,153.1,91.81,16.74,16.74,0,0,1,136.38,75.09ZM220.1,295.93H158.78V249.68c15.77,7.16,33.38,13.77,61.32,15.37Zm0-42.24c-28.32-1.71-44.76-8.78-61.32-16.51V166.8A164.07,164.07,0,0,0,195,179a30.87,30.87,0,0,0,25.07,28.21Zm-11-76.79a16.73,16.73,0,1,1,16.72,16.72A16.74,16.74,0,0,1,209.05,176.9Zm82,119H231.45V265.46h2.27c26.21,0,43.84-4,57.34-8.61Zm-57.34-41.82h-2.27V207.21a30.91,30.91,0,0,0,24.81-25.75,154.1,154.1,0,0,0,34.8-7.5v70.83C278,249.68,260.81,254.11,233.72,254.11Z"/><path class="cls-1" d="M1103.24,202.46c-8.4-5.08-18.46-7.7-29.92-7.78s-21.44,2.67-30.07,8.16a56.34,56.34,0,0,0-20.09,22.2,67.2,67.2,0,0,0-7.21,30.47,64.6,64.6,0,0,0,7.26,31.17,55.4,55.4,0,0,0,20.72,21.91,58.37,58.37,0,0,0,30.13,8.11c12.21.08,22.81-2.58,31.51-7.92a58.67,58.67,0,0,0,20.77-21.94l.73-1.33-18.74-9.07-.7,1.17c-7.81,13.07-18.52,19.37-32.76,19.27a38,38,0,0,1-17.37-4.35,35,35,0,0,1-13.6-12.76c-3.33-5.28-5.29-11.79-5.83-19.36l90.06.62.31-1.07a22.81,22.81,0,0,0,.76-6.09c.08-11.31-2.13-21.52-6.57-30.36A51,51,0,0,0,1103.24,202.46Zm-63.65,39.69a38.53,38.53,0,0,1,11.53-19.72A31.36,31.36,0,0,1,1073,214.5c7.46.05,13.72,1.65,18.6,4.74a29,29,0,0,1,10.74,11.36,35.51,35.51,0,0,1,3.67,12Z"/><path class="cls-1" d="M1197,194.68a45.86,45.86,0,0,0-22.75,6,42,42,0,0,0-13.72,11.79V198.2h-21.16v115h22.05V248.65a37.38,37.38,0,0,1,3.9-16.62,32.84,32.84,0,0,1,10.86-12.74,27,27,0,0,1,15.66-4.79c8.39,0,15.08,2.23,19.87,6.64s7.17,11.64,7.17,21.58v70.45h22.06V239.86c0-13.79-3.8-24.87-11.28-33S1211.14,194.68,1197,194.68Z"/><path class="cls-1" d="M1343.58,276.66a31.76,31.76,0,0,1-12.46,14.94c-5.56,3.49-12.32,5.27-20.09,5.27a34.09,34.09,0,0,1-18.08-5.16,38.19,38.19,0,0,1-13.52-14.51,47.93,47.93,0,0,1,0-43A38.19,38.19,0,0,1,1293,219.66,34.09,34.09,0,0,1,1311,214.5c7.61,0,14.18,1.73,19.52,5.15a31.76,31.76,0,0,1,12.12,15l.57,1.36,20-8.14-.5-1.31a48.23,48.23,0,0,0-18.63-23.21c-8.67-5.78-19.5-8.71-32.17-8.71a60.32,60.32,0,0,0-30.64,7.89,55.79,55.79,0,0,0-21.21,21.88,64.64,64.64,0,0,0-7.59,31.24,63.91,63.91,0,0,0,7.59,31.11,56.59,56.59,0,0,0,21.21,21.88,59.58,59.58,0,0,0,30.64,8c12.52,0,23.34-3,32.16-8.82a51.37,51.37,0,0,0,19.3-23.06l.56-1.34-19.8-8.15Z"/><path class="cls-1" d="M1471.86,207.14c-7.59-8.27-18.69-12.46-33-12.46a46.78,46.78,0,0,0-23.09,5.9,40.73,40.73,0,0,0-13.37,11.5l.65-11.34V152.93h-22V313.17h22V249.31a35.74,35.74,0,0,1,4.22-16.7,36.67,36.67,0,0,1,11.45-13.11,26.85,26.85,0,0,1,15.65-5c7.95,0,14.49,2.31,19.42,6.86s7.4,11.71,7.4,21.36v70.45h22V239.86C1483.25,226.37,1479.42,215.36,1471.86,207.14Z"/><path class="cls-1" d="M474.31,302.94a71.39,71.39,0,0,0,28.89-28.38c6.67-12,10.06-26,10.06-41.57s-3.39-29.53-10.06-41.56a71.52,71.52,0,0,0-28.89-28.38c-12.44-6.75-27.2-10.18-43.84-10.18h-50V313.12h50C447.13,313.12,461.88,309.69,474.31,302.94Zm-72-10.52V173.57h28.17c18.52,0,33.4,5.26,44.22,15.63S491,214.3,491,233s-5.48,33.44-16.29,43.8-25.7,15.63-44.22,15.63Z"/><polygon class="cls-1" points="535.01 360.58 558.06 360.58 630.09 198.14 606.18 198.14 572.34 279.62 537.18 198.14 513.26 198.14 561.3 304.62 535.01 360.58"/><path class="cls-1" d="M692.6,194.62a45.9,45.9,0,0,0-22.75,6,42,42,0,0,0-13.72,11.79V198.14H635v115h22V248.6a37.59,37.59,0,0,1,3.9-16.63,32.89,32.89,0,0,1,10.86-12.73,26.9,26.9,0,0,1,15.66-4.8c8.4,0,15.08,2.24,19.87,6.65s7.17,11.64,7.17,21.58v70.45h22.06V239.81c0-13.78-3.79-24.87-11.28-32.95S706.74,194.62,692.6,194.62Z"/><path class="cls-1" d="M777.08,305.2a62.12,62.12,0,0,0,60.72,0,53.78,53.78,0,0,0,7.17-5.08v13h21.59V196H845v11a53.78,53.78,0,0,0-7.17-5.08,62.08,62.08,0,0,0-60.72,0,56.32,56.32,0,0,0-21,21.57,63.9,63.9,0,0,0,0,60.15A56.34,56.34,0,0,0,777.08,305.2Zm-7.18-51.65c0-8.15,1.74-15.35,5.18-21.39a36.22,36.22,0,0,1,13.8-13.93,37.58,37.58,0,0,1,18.56-4.84,37,37,0,0,1,18.44,4.84,36.37,36.37,0,0,1,13.69,13.93c3.45,6,5.19,13.24,5.19,21.39s-1.74,15.34-5.19,21.38a36.24,36.24,0,0,1-13.69,13.93,37.87,37.87,0,0,1-37,0,36.16,36.16,0,0,1-13.8-13.93C771.64,268.89,769.9,261.7,769.9,253.55Z"/><path class="cls-1" d="M998.06,283.62a63.9,63.9,0,0,0,0-60.15,56.32,56.32,0,0,0-21-21.57,62.08,62.08,0,0,0-60.72,0,53.06,53.06,0,0,0-7.16,5.08v-54H887.55V313.12h21.59v-13a53.06,53.06,0,0,0,7.16,5.08,62.12,62.12,0,0,0,60.72,0A56.34,56.34,0,0,0,998.06,283.62Zm-19-8.69a36.09,36.09,0,0,1-13.8,13.93,37.85,37.85,0,0,1-37,0,36.19,36.19,0,0,1-13.7-13.93c-3.45-6-5.19-13.23-5.19-21.38s1.74-15.35,5.19-21.39a36.33,36.33,0,0,1,13.7-13.93,36.91,36.91,0,0,1,18.43-4.84,37.58,37.58,0,0,1,18.56,4.84A36.22,36.22,0,0,1,979,232.16c3.44,6,5.18,13.24,5.18,21.39S982.46,268.89,979,274.93Z"/></g></g></svg>
